<?xml version="1.0" encoding="utf-8"?>
<svg xmlns="http://www.w3.org/2000/svg" width="400" height="400" viewBox="0 0 1000 1000">
	<path fill="#020202" transform="scale(2 2)"
		d="M252.287 70.7502C262.117 69.6172 273.651 73.4984 281.388 79.4483C312.449 103.337 297.923 151.378 260.135 155.491C222.55 156.909 200.415 117.476 222.468 87.6203C229.985 77.4436 240.011 72.5922 252.287 70.7502ZM252.287 77.5036C208.18 84.4402 210.064 149.597 260.135 148.75C309.787 139.273 295.324 73.8364 252.287 77.5036Z" />
	<path fill="#020202" transform="scale(2 2)"
		d="M255.432 89.5134C260.455 89.426 262.38 98.1232 264.883 101.393C268.517 102.737 275.263 102.941 278.045 104.539C283.515 107.682 273.205 115.026 270.739 118.797C270.626 124.461 274.697 132.345 268.351 134.929C264.316 133.389 260.388 131.279 256.456 129.467C238.48 137.405 240.779 138.688 241.563 118.797C227.457 103.239 227.54 106.555 247.31 101.393C248.527 97.7033 251.229 90.5708 255.432 89.5134Z" />
	<path fill="#FC0" transform="scale(2 2)"
		d="M255.432 98.6896C257.236 99.2872 259.433 105.02 261.091 106.819C264.014 108.202 267.574 108.529 270.739 109.154C268.091 111.453 265.412 113.679 263.791 116.845C263.903 119.993 264.587 123.192 264.883 126.341C262.14 124.872 259.343 123.319 256.456 122.155C253.172 122.906 250.45 125.17 247.31 126.341C247.819 123.176 248.309 120.061 248.265 116.845C246.641 113.897 243.724 111.728 241.563 109.154C251.461 106.372 250.514 109.689 255.432 98.6896Z" />
	<path fill="#020202" transform="scale(2 2)"
		d="M150.628 70.7502C182.708 65.3339 209.792 109.958 187.379 138.761C178.257 150.482 167.699 154.51 153.731 156.24C138.465 155.37 126.237 151.011 116.656 138.085C95.0167 108.891 121.598 65.8526 150.628 70.7502ZM148.87 76.75C98.4093 83.5262 108.582 152.871 156.064 149.25C190.541 143.661 200.899 103.123 173.84 84.0871C167.274 79.468 157.033 75.5549 148.87 76.75Z" />
	<path fill="#020202" transform="scale(2 2)"
		d="M150.628 89.5134C156.596 89.8067 157.981 98.4066 161.657 102.138C184.682 105.349 173.064 108.263 166.493 118.486L166.297 118.797C166.474 123.265 167.299 127.809 167.262 132.228C163.555 137.21 155.833 131.456 151.653 129.467C150.917 129.101 141.228 134.414 138.786 134.649C132.956 135.209 136.681 121.751 136.969 118.797C136.011 116.185 122.597 107.167 129.321 104.4C132.357 103.151 139.161 102.342 142.878 101.393C144.675 97.789 146.782 91.3051 150.628 89.5134Z" />
	<path fill="#FC0" transform="scale(2 2)"
		d="M151.653 98.6896C153.652 100.899 154.916 104.117 156.064 106.819C159.327 107.911 162.927 108.47 166.297 109.154C163.86 111.566 161.372 113.961 159.487 116.845C159.911 119.769 159.944 122.852 160.123 125.806C157.695 124.868 152.902 122.462 150.628 122.155C148.106 123.683 145.581 125.152 142.878 126.341C142.866 123.205 143.447 119.967 143.787 116.845C141.858 114.107 139.245 111.619 136.969 109.154C140.234 108.225 143.643 107.869 146.874 106.819C148.502 104.126 149.968 101.355 151.653 98.6896Z" />
	<path fill="#020202" transform="scale(2 2)"
		d="M358.55 70.7502C367.06 68.3231 381.406 74.2057 387.889 79.5397C419.238 105.331 403.477 152.966 362.795 156.24C337.475 156.742 316.115 138.305 316.629 112.29C317.067 90.0735 335.898 70.2063 358.55 70.7502ZM357.731 76.75C355.147 77.3664 352.475 77.6551 349.93 78.4262C306.53 91.5776 321.06 153.265 362.795 149.25C409.5 148.225 409.041 74.9922 357.731 76.75Z" />
	<path fill="#020202" transform="scale(2 2)"
		d="M360.784 89.5134C364.976 89.8756 368.101 98.7166 369.339 102.138C373.208 102.798 379.324 102.778 382.736 104.233C390.368 107.488 376.739 115.468 375.424 118.797C376.566 138.261 379.448 136.885 361.871 129.467C359.316 127.933 351.657 134.383 348.135 134.395C342.577 134.415 346.271 121.916 346.475 118.797C330.08 105.513 334.684 104.477 352.15 102.138C353.64 98.0317 355.994 90.6576 360.784 89.5134Z" />
	<path fill="#FC0" transform="scale(2 2)"
		d="M360.784 98.6896C367.546 105.638 358.609 107.074 375.424 109.154C373.127 111.771 370.09 113.842 368.272 116.845C368.443 119.82 369.058 122.826 369.339 125.806C366.81 124.498 363.668 122.401 360.784 122.155C357.619 122.91 355.027 124.355 352.15 125.806C352.485 122.754 352.986 119.829 353.713 116.845C351.247 114.088 348.206 111.654 345.471 109.154C356.139 107.947 355.899 109.029 360.784 98.6896Z" />
	<path fill="#020202" transform="scale(2 2)"
		d="M255.432 312.333C277.548 312.797 297.56 334.535 288.444 355.44C285.666 361.812 284.063 364.957 281.523 371.913C306.074 385.393 305.884 380.595 310.713 409.378C315.688 439.028 315.216 440.458 287.358 440.47L257.531 440.468L225.795 440.445C220.527 440.444 213.893 441.123 208.813 440.02C194.092 436.822 199.765 419.417 201.018 409.644C203.054 393.761 201.279 387.611 217.521 379.11C221.97 376.782 226.599 374.546 230.872 371.913C228.779 364.49 223.351 354.616 222.598 349.528C219.469 328.373 235.94 315.105 255.432 312.333ZM277.802 377.679C268.394 388.962 253.03 392.334 240.621 383.582C239.683 382.866 238.635 382.312 237.612 381.726C232.455 383.509 217.548 391.082 215.263 395.747C210.763 404.932 211.736 423.15 209.092 433.713C213.304 434.378 217.855 433.722 222.112 433.718L283.671 433.724C289.484 433.729 295.544 434.081 301.322 433.532C310.32 432.676 305.357 419.068 304.537 413.79C303.676 408.251 303.239 394.824 299.465 390.651C296.696 386.645 282.82 379.911 277.802 377.679ZM255.432 319.127C240.888 320.25 227.791 331.662 229.013 347.085C229.452 352.619 231.941 354.415 234.015 359.074C236.997 365.769 236.878 371.956 243.247 377.266C246.896 380.309 252.716 382.664 257.531 381.726C262.815 381.595 267.815 378.502 271.385 374.766C274.369 371.644 283.724 349.441 283.627 345.121C283.291 330.267 270.012 318.679 255.432 319.127ZM234.494 377.679C210.017 391.148 210.939 384.416 207.233 413.013C206.12 421.603 202.862 427.332 209.092 433.713C211.736 423.15 210.763 404.932 215.263 395.747C217.548 391.082 232.455 383.509 237.612 381.726C236.484 380.432 235.487 379.079 234.494 377.679Z" />
	<path fill="#FC0" transform="scale(2 2)"
		d="M277.802 377.679C282.82 379.911 296.696 386.645 299.465 390.651C303.239 394.824 303.676 408.251 304.537 413.79C305.357 419.068 310.32 432.676 301.322 433.532C295.544 434.081 289.484 433.729 283.671 433.724L222.112 433.718C217.855 433.722 213.304 434.378 209.092 433.713C211.736 423.15 210.763 404.932 215.263 395.747C217.548 391.082 232.455 383.509 237.612 381.726C238.635 382.312 239.683 382.866 240.621 383.582C253.03 392.334 268.394 388.962 277.802 377.679ZM277.802 377.679C268.394 388.962 253.03 392.334 240.621 383.582C245.08 392.818 261.592 394.319 270.331 390.053C275.356 387.6 278.376 383.138 282.432 381.151C286.363 382.966 290.379 384.965 294.07 387.231C295.476 388.094 297.95 390.332 299.465 390.651C296.696 386.645 282.82 379.911 277.802 377.679Z" />
	<path fill="#020202" transform="scale(2 2)"
		d="M122.631 312.333C144.377 309.234 166.056 335.724 156.146 356.237C152.863 363.033 151.775 364.008 148.87 371.913C174.518 382.57 175.365 385.28 178.995 410.884C182.683 436.895 182.472 440.169 155.865 440.406L124.938 440.468C115.413 440.285 80.6712 441.836 73.5536 439.689C60.0534 435.617 66.4773 417.115 67.9928 407.496C72.1351 381.204 74.1744 383.808 98.6585 371.913C96.5654 363.22 91.0447 355.851 90.3627 349.103C88.3599 329.284 103.576 314.124 122.631 312.333ZM122.631 319.127C108.111 320.63 95.127 332.744 96.8486 348.115C97.3648 352.724 99.9833 355.424 101.89 359.398C107.187 370.437 109.559 382.971 126.092 381.726C142.244 378.673 141.894 366.544 149.263 354.645C159.398 338.28 140.163 316.91 122.631 319.127ZM102.622 377.679C94.6713 380.289 78.6796 386.856 76.6193 396.038C74.7973 404.157 72.2244 419.581 71.6472 427.8C71.4511 430.593 73.2345 432.053 75.2397 433.713C76.8174 425.73 78.0174 417.634 79.3449 409.601C80.4107 403.152 79.7295 396.496 85.4221 392.221C88.2003 390.135 101.874 382.333 105.24 381.151C132.748 408.112 144.558 380.569 151.653 381.151C149.614 379.806 147.683 378.577 145.402 377.679C131.295 392.456 116.738 392.385 102.622 377.679Z" />
	<path fill="#FC0" transform="scale(2 2)"
		d="M151.653 381.151C156.02 382.413 166.347 387.789 168.713 391.805C171.281 396.164 171.597 407.171 172.258 412.251C173.313 420.357 178.348 433.334 166.497 433.721C160.115 433.929 153.664 433.691 147.275 433.701L84.3208 433.71C81.3984 433.73 78.1102 434.185 75.2397 433.713C76.8174 425.73 78.0174 417.634 79.3449 409.601C80.4107 403.152 79.7295 396.496 85.4221 392.221C88.2003 390.135 101.874 382.333 105.24 381.151C132.748 408.112 144.558 380.569 151.653 381.151Z" />
	<path fill="#020202" transform="scale(2 2)"
		d="M385.269 312.333C408.489 310.836 429.688 333.838 420.897 355.571C418.086 362.521 416.732 363.371 414.336 371.913C423.617 377.276 437.986 380.391 441.877 391.692C443.05 395.101 447.791 425.503 447.744 429.06C447.568 442.384 430.748 440.475 422.394 440.474L393.625 440.468L361.3 440.482C351.346 440.483 332.64 443.412 331.698 428.509C331.38 423.464 335.314 398.857 336.976 393.083C340.254 381.691 353.193 377.291 362.795 371.913C361.396 367.758 355.202 352.791 354.927 351.085C351.734 331.274 366.169 315.096 385.269 312.333ZM410.6 377.679C400.351 390.204 387.842 391.603 373.849 385.068C372.669 383.673 370.713 382.463 369.339 381.151C351.539 389.744 347.786 390.491 345.037 408.922L342.477 425.46C342.112 427.701 341.949 430.418 341.141 432.52C344.176 434.837 435.024 434.41 437.51 433.51C444.102 431.123 438.917 415.123 438.15 410.159C434.53 386.722 436.486 390.057 414.336 379.405C413.099 378.815 411.869 378.196 410.6 377.679ZM386.998 319.127C372.398 319.626 360.814 332.037 361.427 346.657C361.65 352.005 370.8 373.851 374.521 377.195C378.383 380.666 384.813 383.233 390.062 382.381C405.778 380.651 406.473 369.729 411.253 358.905C412.52 356.035 414.592 353.626 415.406 350.539C419.621 334.562 403.176 317.02 386.998 319.127ZM341.141 432.52C341.949 430.418 342.112 427.701 342.477 425.46L345.037 408.922C347.786 390.491 351.539 389.744 369.339 381.151L366.298 377.679C340.079 390.807 343.725 388.854 339.584 417.995C338.724 424.045 336.938 427.427 341.141 432.52Z" />
	<path fill="#FC0" transform="scale(2 2)"
		d="M410.6 377.679C411.869 378.196 413.099 378.815 414.336 379.405C436.486 390.057 434.53 386.722 438.15 410.159C438.917 415.123 444.102 431.123 437.51 433.51C435.024 434.41 344.176 434.837 341.141 432.52C341.949 430.418 342.112 427.701 342.477 425.46L345.037 408.922C347.786 390.491 351.539 389.744 369.339 381.151C370.713 382.463 372.669 383.673 373.849 385.068C387.842 391.603 400.351 390.204 410.6 377.679ZM410.6 377.679C400.351 390.204 387.842 391.603 373.849 385.068C374.499 386.288 375.72 387.28 376.806 388.11C390.097 398.27 405.272 391.712 414.336 379.405C413.099 378.815 411.869 378.196 410.6 377.679Z" />
	<path fill="#020202" transform="scale(2 2)"
		d="M140.643 171.867C145.438 171.109 150.777 171.857 155.636 171.867L215.369 171.871C228.766 171.863 243.23 170.412 247.593 187.612C248.99 193.122 248.278 200.333 248.263 206.05L248.349 227.069C248.542 254.905 244.917 262.463 216.183 262.473L193.265 262.5C192.437 263.22 191.7 264.123 190.947 264.924C183.159 270.656 156.848 297.188 152.516 296.528C147.547 295.77 151.27 286.446 151.834 283.642L156.064 261.948C147.878 261.662 137.958 263.485 130.703 258.727C120.681 252.153 120.501 243.25 120.521 232.586L120.538 201.244C120.53 185.456 123.203 175.024 140.643 171.867ZM129.549 186.5C125.31 193.242 127.231 206.395 127.241 214.059L127.219 231.231C127.214 235.393 126.764 240.171 127.764 244.218C132.339 262.731 161.111 251.199 163.153 257.198C163.9 259.39 159.597 280.015 158.689 283.611C164.27 279.05 186.523 258.365 190.519 256.65C193.339 255.439 211.245 256.242 215.121 256.243C246.585 256.252 241.579 244.075 241.577 217.568C241.576 211.761 242.942 192.315 240.621 187.938C238.104 187.444 236.597 183.745 233.05 183.391C227.77 182.865 222.196 183.213 216.876 183.211L154.488 183.216C148.487 183.219 142.243 182.888 136.275 183.492C133.669 183.756 132.055 186.22 129.549 186.5ZM129.549 186.5C132.055 186.22 133.669 183.756 136.275 183.492C142.243 182.888 148.487 183.219 154.488 183.216L216.876 183.211C222.196 183.213 227.77 182.865 233.05 183.391C236.597 183.745 238.104 187.444 240.621 187.938C236.196 176.119 222.888 178.77 212.762 178.764L156.741 178.756C146.849 178.759 135.44 176.437 129.549 186.5Z" />
	<path fill="#FC0" transform="scale(2 2)"
		d="M129.549 186.5C132.055 186.22 133.669 183.756 136.275 183.492C142.243 182.888 148.487 183.219 154.488 183.216L216.876 183.211C222.196 183.213 227.77 182.865 233.05 183.391C236.597 183.745 238.104 187.444 240.621 187.938C242.942 192.315 241.576 211.761 241.577 217.568C241.579 244.075 246.585 256.252 215.121 256.243C211.245 256.242 193.339 255.439 190.519 256.65C186.523 258.365 164.27 279.05 158.689 283.611C159.597 280.015 163.9 259.39 163.153 257.198C161.111 251.199 132.339 262.731 127.764 244.218C126.764 240.171 127.214 235.393 127.219 231.231L127.241 214.059C127.231 206.395 125.31 193.242 129.549 186.5ZM180.033 195.758C175.932 197.552 175.377 206.727 175.206 210.488C169.032 210.467 147.426 208.322 162.927 218.504L169.564 222.858C168.632 225.927 164.188 236.723 165.214 239.118C167.313 244.016 177.524 232.051 180.125 231.326L180.625 231.602C182.64 233.096 192.03 244.213 194.605 240.238C196.304 237.615 191.746 226.363 190.947 222.858C208.535 211.322 207.896 210.593 186.473 210.488C185.59 206.273 185.167 195.699 180.033 195.758Z" />
	<path fill="#020202" transform="scale(2 2)"
		d="M180.033 195.758C185.167 195.699 185.59 206.273 186.473 210.488C207.896 210.593 208.535 211.322 190.947 222.858C191.746 226.363 196.304 237.615 194.605 240.238C192.03 244.213 182.64 233.096 180.625 231.602L180.125 231.326C177.524 232.051 167.313 244.016 165.214 239.118C164.188 236.723 168.632 225.927 169.564 222.858L162.927 218.504C147.426 208.322 169.032 210.467 175.206 210.488C175.377 206.727 175.932 197.552 180.033 195.758ZM180.625 211.415C177.919 217.02 177.473 216.597 171.755 217.103C177.29 219.751 176.328 221.522 175.206 226.975C176.657 225.441 177.916 224.554 180.033 224.08C182.072 224.708 183.349 225.529 184.9 226.975C183.811 221.984 183.844 219.833 188.28 217.103C183.624 216.654 181.544 216.262 180.625 211.415Z" />
	<path fill="#020202" transform="scale(2 2)"
		d="M307.101 171.867L351.189 171.856C368.73 171.857 391.736 168.637 391.993 194.366L392.008 224.698C392.003 235.773 394.041 247.337 385.492 255.915C377.011 264.426 366.842 262.51 355.967 262.5C357.326 272.259 360.23 281.997 362.311 291.637C364.182 300.305 360.117 299.11 354.646 294.644C346.708 287.277 326.187 267.811 317.83 262.5L291.335 262.525C277.461 262.53 260.48 262.671 260.093 242.76C259.873 231.474 260.124 220.122 260.128 208.829C260.137 180.628 259.396 171.845 291.083 171.85L307.101 171.867ZM266.749 194.848C266.502 202.166 265.786 241.009 267.164 246.383C270.268 258.485 284.465 256.191 293.78 256.203C302.143 256.213 310.628 257.245 318.834 255.32C323.93 256.885 347.08 279.367 353.713 284.557C352.721 280.174 347.647 259.848 348.126 257.239C352.173 253.221 383.656 263.31 385.201 241.155C385.414 238.104 385.286 234.974 385.285 231.914L385.279 215.315C385.274 208.968 386.665 193.29 384.152 187.938C381.424 187.356 380.021 183.908 376.766 183.339C373.912 182.839 370.421 183.204 367.509 183.205L303.234 183.217C298.258 183.216 281.31 182.226 277.179 183.886C271.296 186.25 269.833 190.167 266.749 194.848ZM266.749 194.848C269.833 190.167 271.296 186.25 277.179 183.886C281.31 182.226 298.258 183.216 303.234 183.217L367.509 183.205C370.421 183.204 373.912 182.839 376.766 183.339C380.021 183.908 381.424 187.356 384.152 187.938C378.926 175.957 366.609 178.767 356.016 178.765L294.14 178.762C280.459 178.765 266.145 176.533 266.749 194.848Z" />
	<path fill="#FC0" transform="scale(2 2)"
		d="M266.749 194.848C269.833 190.167 271.296 186.25 277.179 183.886C281.31 182.226 298.258 183.216 303.234 183.217L367.509 183.205C370.421 183.204 373.912 182.839 376.766 183.339C380.021 183.908 381.424 187.356 384.152 187.938C386.665 193.29 385.274 208.968 385.279 215.315L385.285 231.914C385.286 234.974 385.414 238.104 385.201 241.155C383.656 263.31 352.173 253.221 348.126 257.239C347.647 259.848 352.721 280.174 353.713 284.557C347.08 279.367 323.93 256.885 318.834 255.32C310.628 257.245 302.143 256.213 293.78 256.203C284.465 256.191 270.268 258.485 267.164 246.383C265.786 241.009 266.502 202.166 266.749 194.848ZM325.58 195.758C321.635 197.844 320.834 206.552 319.848 210.488C316.634 210.474 305.162 209.722 303.119 211.693C298.853 215.808 313.631 221.531 315.796 222.858C314.561 225.944 311.258 232.009 310.674 234.669C308.241 245.746 324.381 231.252 325.58 230.467C328.901 229.592 337.268 243.225 340.409 236.708C341.084 235.308 337.183 224.996 336.52 222.858C338.572 221.299 352.379 215.317 348.028 211.778C345.778 209.949 336.097 210.48 332.906 210.488C331.849 206.596 331.146 195.278 325.58 195.758Z" />
	<path fill="#020202" transform="scale(2 2)"
		d="M325.58 195.758C331.146 195.278 331.849 206.596 332.906 210.488C336.097 210.48 345.778 209.949 348.028 211.778C352.379 215.317 338.572 221.299 336.52 222.858C337.183 224.996 341.084 235.308 340.409 236.708C337.268 243.225 328.901 229.592 325.58 230.467C324.381 231.252 308.241 245.746 310.674 234.669C311.258 232.009 314.561 225.944 315.796 222.858C313.631 221.531 298.853 215.808 303.119 211.693C305.162 209.722 316.634 210.474 319.848 210.488C320.834 206.552 321.635 197.844 325.58 195.758ZM326.399 210.488C324.349 215.955 323.446 216.358 317.83 216.368C319.252 217.539 320.835 218.688 322.045 220.076C321.778 222.029 321.399 223.88 320.858 225.775C322.662 224.692 324.428 223.614 326.399 222.858C328.321 223.242 329.576 224.497 330.968 225.775C330.013 220.607 330.672 219.554 334.569 216.368C332.335 216.675 330.718 216.63 328.656 215.541C327.594 214.084 326.995 212.447 326.597 210.697L326.399 210.488Z" />
</svg>