<?xml version="1.0" encoding="utf-8"?>
<svg xmlns="http://www.w3.org/2000/svg" width="400" height="400" viewBox="0 0 1000 1000">

	<path fill="#020202" transform="scale(2 2)"
		d="M409.995 102.524C443.78 100.319 470.345 130.597 458.208 163.744C456.658 167.976 455.772 168.524 455.749 173.411L455.745 364.68C452.113 370.621 445.718 365.087 441.347 362.802L426.552 355.171C422.815 353.253 419.074 351.112 415.088 349.761C403.598 354.358 391.979 360.412 380.698 365.644C353.693 378.167 326.562 390.634 299.127 402.188C294.577 404.104 284.462 410.407 279.543 408.254C272.713 405.265 266.116 401.661 259.331 398.56L205.691 374.438C194.228 369.208 180.311 362.327 168.5 358.13L168.236 358.038C160.864 361.697 153.349 364.925 145.858 368.32L100.066 388.854L72.4699 401.153C68.5747 402.926 54.1129 412.293 51.7964 405.954C50.9911 403.75 51.509 366.105 51.5089 360.164L51.5169 186.555C51.5295 170.374 47.6563 174.229 62.3165 167.428L153.182 125.683C158.1 123.432 162.996 120.731 168.236 119.341C173.376 122.329 179.363 124.546 184.774 127.034C217.365 142.02 250.504 157.049 283.39 171.271C296.93 166.639 313.153 157.846 326.435 151.869L358.744 137.092C362.889 135.181 367.715 133.701 371.527 131.223C379.987 114.638 390.476 105.382 409.995 102.524ZM413.16 111.544C393.424 112.296 376.896 128.85 377.757 148.879C378.577 167.962 403.824 203.068 415.088 217.427L416.348 215.658C427.747 200.885 449.522 171.201 452.353 152.33C455.496 131.381 433.993 108.054 413.16 111.544Z" />
	<path fill="#FC0" transform="scale(2 2)"
		d="M413.16 111.544C433.993 108.054 455.496 131.381 452.353 152.33C449.522 171.201 427.747 200.885 416.348 215.658L415.088 217.427C403.824 203.068 378.577 167.962 377.757 148.879C376.896 128.85 393.424 112.296 413.16 111.544ZM414.356 127.106C388.02 128.889 392.711 164.881 415.088 163.628C439.749 161.424 438.555 127.285 414.356 127.106Z" />
	<path fill="#020202" transform="scale(2 2)"
		d="M414.356 127.106C438.555 127.285 439.749 161.424 415.088 163.628C392.711 164.881 388.02 128.889 414.356 127.106ZM414.356 135.791C400.726 138.388 403.047 154.991 415.737 154.485C427.82 152.112 426.067 135.078 414.356 135.791Z" />
	<path fill="#FC0" transform="scale(2 2)"
		d="M163.595 131.223C163.79 131.654 163.598 237.268 163.595 248.603C161.272 250.302 157.024 252.727 156.06 255.486C154.367 260.332 159.217 261.683 163.595 259.044L163.595 350.479C151.929 356.168 139.908 361.243 128.057 366.539L67.0228 394.007C64.7463 395.023 62.5534 396.124 60.3562 397.297L60.3562 178.371C66.3114 175.754 72.1739 172.895 78.0934 170.193L150.634 136.69C154.866 134.694 159.026 132.328 163.595 131.223Z" />
	<path fill="#020202" transform="scale(2 2)"
		d="M96.959 310.812C108.449 309.501 97.0102 328.138 92.9902 330.432C90.019 330.455 88.8035 329.121 87.7063 326.424C89.0379 321.893 92.6545 312.715 96.959 310.812Z" />
	<path fill="#020202" transform="scale(2 2)"
		d="M149.939 259.044C152.532 259.101 155.621 261.846 154.919 264.65C154.451 266.516 143.247 274.038 140.886 275.562C126.532 272.118 146.192 261.293 149.939 259.044Z" />
	<path fill="#020202" transform="scale(2 2)"
		d="M71.9999 359.027C83.5953 358.178 72.2523 376.857 68.8355 378.936C56.8131 379.917 68.7349 360.806 71.9999 359.027Z" />
	<path fill="#020202" transform="scale(2 2)"
		d="M84.9943 334.223C96.9984 334.795 83.0716 353.652 80.6986 354.855C68.0095 354.832 82.2303 335.949 84.9943 334.223Z" />
	<path fill="#020202" transform="scale(2 2)"
		d="M111.026 193.508C133.188 190.685 150.256 215.736 144.943 236.591C142.283 247.033 128.665 266.905 123.374 277.822C125.653 275.937 127.633 274.235 130.437 273.147C143.836 278.047 124.973 286.464 119.33 290.216C118.369 293.718 117.146 294.391 113.512 294.762L112.216 297.288C111.715 297.795 104.193 313.578 100.735 304.166C99.5275 300.878 105.344 291.43 106.982 288.183C104.851 283.271 102.038 278.596 99.4637 273.905L86.8749 250.963C84.4936 246.6 81.697 242.143 79.9967 237.473C72.3851 216.565 88.6257 194.092 111.026 193.508Z" />
	<path fill="#FC0" transform="scale(2 2)"
		d="M109.872 202.336C127.46 200.735 141.06 217.675 136.314 234.772C134.538 241.17 117.738 268.929 113.512 275.562L112.216 277.822C105.371 264.445 95.2156 249.667 89.3703 236.457C82.3938 220.691 93.5707 204.433 109.872 202.336Z" />
	<path fill="#020202" transform="scale(2 2)"
		d="M109.872 211.288C131.343 209.155 135.916 239.052 114.602 243.638C93.3364 245.993 88.2971 216.004 109.872 211.288Z" />
	<path fill="white" transform="scale(2 2)"
		d="M111.026 220.827C120.047 218.897 122.77 230.468 114.602 234.31C104.425 235.901 101.065 222.884 111.026 220.827Z" />
	<path fill="#FC0" transform="scale(2 2)"
		d="M172.284 131.223C179.987 134.369 187.507 138.115 195.089 141.549L262.152 171.815C267.632 174.279 273.191 176.632 278.516 179.419L278.516 354.855C276.732 351.086 271.81 336.891 265.846 341.669C261.813 344.899 267.636 352.122 269.379 355.375C272.115 360.482 274.439 366.403 278.516 370.617L278.516 397.297L278.317 397.655C276.167 397.749 225.569 373.502 217.607 369.828C204.263 363.671 186.307 354.681 172.284 350.479L172.284 255.232C173.418 255.387 200.248 265.594 194.619 254.422C193.155 251.516 188.449 250.854 185.682 249.981L172.284 245.755L172.284 131.223Z" />
	<defs>
		<linearGradient id="gradient_0" gradientUnits="userSpaceOnUse" x1="203.55792" y1="253.97192"
			x2="212.92418" y2="269.24887">
			<stop offset="0" stop-color="black" />
			<stop offset="1" stop-color="#190504" />
		</linearGradient>
	</defs>
	<path fill="url(#gradient_0)" transform="scale(2 2)"
		d="M201.003 255.232C205.446 255.861 228.635 261.925 215.567 268.236C210.589 268.292 188.832 261.906 201.003 255.232Z" />
	<path fill="#050505" transform="scale(2 2)"
		d="M243.227 289.063C247.287 289.38 251.881 300.674 253.23 304.254C254.556 307.773 253.35 309.695 249.814 310.812C245.237 310.453 239.383 296.704 238.709 293.496C238.125 290.717 241.02 289.425 243.227 289.063Z" />
	<path fill="#050505" transform="scale(2 2)"
		d="M254.549 313.994C259.63 313.687 263.649 324.876 265.711 329.149C267.586 333.032 267.702 335.51 263.374 337.236C258.978 337.105 258.437 333.274 256.7 329.944C253.914 324.606 247.405 317.405 254.549 313.994Z" />
	<path fill="#050505" transform="scale(2 2)"
		d="M225.57 263.227C228.838 263.182 232.231 264.627 235.117 266.05C237.444 269.708 240.981 277.324 242.399 281.379C241.565 283.337 240.705 284.278 238.792 285.227C231.88 285.875 232.579 277.468 228.946 273.147C223.664 271.336 217.888 267.619 225.57 263.227Z" />
	<path fill="#FC0" transform="scale(2 2)"
		d="M369.017 142.225L369.279 142.316C369.431 143.607 369.075 145.044 368.974 146.345C367.416 166.415 392.721 203.384 404.369 217.926C406.901 221.086 411.23 229.221 416.208 227.894C421.768 226.412 442.859 194.283 446.762 187.636L446.762 355.507C437.842 350.716 428.736 345.451 419.457 341.395L419.486 324.759C419.489 321.687 419.737 318.384 419.226 315.357C418.606 311.678 414.22 311.111 411.908 313.594C409.8 315.857 410.766 321.332 410.763 324.137L410.756 341.395C404.711 343.89 398.833 347.036 392.875 349.761L297.43 393.115C294.153 394.56 290.893 396.125 287.508 397.297L287.508 314.969C289.676 314.018 293.862 312.685 294.868 310.354C296.756 305.977 292.313 303.546 287.508 305.829L287.508 179.419C295.113 176.537 302.549 172.85 309.95 169.472L348.788 151.621C355.534 148.491 362.178 145.154 369.017 142.225Z" />
	<path fill="#020202" transform="scale(2 2)"
		d="M414.356 234.31C421.824 233.039 419.991 246.086 419.28 250.73C419.013 252.476 417.69 253.309 416.348 254.243C414.45 254.084 412.252 253.346 411.394 251.489C410.18 248.864 408.65 236.075 414.356 234.31Z" />
	<path fill="#050505" transform="scale(2 2)"
		d="M414.356 259.044C415.969 259.158 418.684 259.575 419.179 261.476C420.243 265.57 421.704 278.023 415.737 279.502C406.272 279.279 410.341 260.255 414.356 259.044Z" />
	<path fill="#050505" transform="scale(2 2)"
		d="M371.527 301.991C376.801 301.589 394.634 309.618 385.547 316.249C381.707 317.297 361.739 307.99 371.527 301.991Z" />
	<path fill="#050505" transform="scale(2 2)"
		d="M394.012 312.975C400.492 313.448 417.772 323.247 406.713 327.624C402.437 326.536 382.219 318.541 394.012 312.975Z" />
	<path fill="#020202" transform="scale(2 2)"
		d="M313.475 295.571C316.546 294.963 319.6 298.109 318.2 301.172C316.904 304.008 305.495 307.933 302.344 309.187C297.319 309.902 291.972 300.642 313.475 295.571Z" />
	<path fill="#050505" transform="scale(2 2)"
		d="M414.356 284.3C415.938 284.205 417.761 284.506 418.706 285.919C419.588 287.236 421.977 303.354 416.348 305.829C414.703 305.885 412.026 305.906 411.291 304.03C410.074 300.922 408.321 286.151 414.356 284.3Z" />
	<path fill="#020202" transform="scale(2 2)"
		d="M336.801 203.258C355.128 199.889 375.607 222.21 372.462 241.071C370.47 253.017 355.966 276.929 349.771 288.183C353.191 290.108 365.243 296.279 366.347 299.74C367.027 301.871 365.162 304.663 363.043 305.122C360.653 305.641 351.006 298.76 348.371 297.288C347.44 296.644 346.348 296.128 345.358 295.571C340.208 305.897 338.634 306.066 331.893 296.038L329.512 297.221C321.143 301.277 315.964 292.608 327.29 289.063C320.713 274.746 304.074 251.005 303.567 236.868C302.95 219.689 319.8 203.737 336.801 203.258Z" />
	<path fill="#FC0" transform="scale(2 2)"
		d="M336.801 212.103C351.238 211.655 366.327 224.821 363.511 240.044C360.843 254.473 345.722 275.681 338.622 290.216C334.258 287.158 312.786 241.564 312.351 237.623C310.998 225.373 324.955 213.138 336.801 212.103Z" />
	<path fill="#020202" transform="scale(2 2)"
		d="M336.801 220.827C354.905 218.654 363.735 248.955 339.748 254.243C317.366 255.336 315.069 224.284 336.801 220.827Z" />
	<path fill="white" transform="scale(2 2)"
		d="M336.801 230.032C346.332 228.595 349.57 241.975 339.748 244.969C328.693 246.136 327.116 233.141 336.801 230.032Z" />
</svg>