<?xml version="1.0" encoding="utf-8"?>
<svg xmlns="http://www.w3.org/2000/svg" width="400" height="400" viewBox="0 0 1000 1000">
	<path fill="#020202" transform="scale(2 2)"
		d="M399.662 81.0025C406.175 80.6721 430.471 80.176 436.003 81.2816C447.833 83.6459 445.319 98.1912 445.427 106.987C445.583 119.803 445.495 132.623 445.494 145.44L445.507 399.271C445.508 409.915 449.132 429.672 433.499 430.423C426.359 430.767 419.045 430.431 411.885 430.426L95.1771 430.441C76.9732 430.455 66.9407 434.268 66.9791 413.183L66.9907 105.024C66.99 79.5101 70.1884 80.9881 96.3917 80.993L250.104 81.0025L399.662 81.0025Z" />
	<path fill="#FC0" transform="scale(2 2)"
		d="M133.025 87.8472L422.068 87.8365C441.689 87.8334 438.3 88.2356 438.297 106.513L438.286 351.164C438.287 374.216 438.6 397.315 438.288 420.363C434.306 426.138 424.162 423.747 417.308 423.748L379.921 423.738L90.9861 423.741C77.6492 423.742 74.11 427.197 73.9422 413.285C73.6502 389.067 73.9265 364.814 73.9261 340.591L73.9226 105.616C73.923 101.053 72.0427 89.345 78.4985 88.2624C84.4388 87.2663 91.6113 87.8385 97.6862 87.8377L133.025 87.8472Z" />
	<path fill="#020202" transform="scale(2 2)"
		d="M123.394 96.6676L411.001 96.6597C421.093 96.657 429.757 93.9927 430.143 107.533C430.38 115.833 430.183 124.186 430.179 132.491L430.171 381.126C430.17 386.25 430.821 409.262 429.665 412.616C428.124 417.089 417.916 415.302 414.325 415.3L389.375 415.283L90.9225 415.282C88.5827 415.291 84.7691 416.114 82.6263 415C81.238 412.13 82.2392 388.284 82.2393 383.538L82.2347 129.951C82.232 124.382 81.5796 104.63 82.9425 100.853C85.1384 94.7688 95.5535 96.6536 100.619 96.6535L123.394 96.6676Z" />
	<path fill="#FC0" transform="scale(2 2)"
		d="M352.014 103.429L423.003 103.429L423.002 306.992C423.003 340.871 423.395 374.8 423.003 408.673L160.625 408.673L89.2506 408.673L89.2506 103.429C98.7246 103.09 108.345 103.426 117.833 103.427L352.014 103.429Z" />
	<path fill="#020202" transform="scale(2 2)"
		d="M259.445 346.472C259.018 351.194 262.713 387.288 254.279 380.787C251.027 378.281 252.242 372.265 252.243 368.749L252.261 150.177C252.263 146.664 250.971 133.168 253.332 130.663C255.41 128.456 259.071 129.785 259.406 132.694C259.767 135.835 259.471 139.288 259.464 142.469L259.445 162.629L259.419 341.036C259.413 342.808 259.238 344.727 259.445 346.472Z" />
	<path fill="#020202" transform="scale(2 2)"
		d="M182.364 133.604C195.384 132.186 208.154 142.9 209.108 155.894C210.067 168.961 198.442 180.533 185.733 181.274C153.3 184.041 147.13 136.681 182.364 133.604Z" />
	<path fill="#FC0" transform="scale(2 2)"
		d="M182.364 140.339C204.196 138.142 211.143 170.02 185.733 174.566C161.436 176.543 156.931 143.647 182.364 140.339Z" />
	<path fill="#020202" transform="scale(2 2)"
		d="M325.459 133.604C355.509 129.95 367.936 172.536 332.197 181.274C296.456 183.437 293.769 137.934 325.459 133.604Z" />
	<path fill="#FC0" transform="scale(2 2)"
		d="M326.299 140.339C351.05 138.716 354.772 169.916 330.996 174.566C305.222 175.22 303.171 143.656 326.299 140.339Z" />
	<path fill="#020202" transform="scale(2 2)"
		d="M291.976 275.416C281.276 275.56 277.997 271.666 277.864 261.238C277.722 250.066 276.389 211.816 278.638 202.693C281.431 191.37 293.004 184.4 304.169 184.338L336.444 184.469C352.39 184.445 374.354 181.438 379.256 202.42C380.635 208.321 379.934 219.088 379.924 225.414L379.942 262.269C379.927 271.469 375.118 275.469 366.054 275.416C368.055 279.924 379.469 308.715 378.596 311.353C377.365 315.068 360.925 313.295 356.848 313.288L356.835 352.947C356.834 357.722 357.424 366.026 356.547 370.403C354.552 380.366 340.917 384.116 334.136 376.3C329.517 370.975 330.994 362.389 330.989 355.923L330.991 323.338C330.999 318.879 331.452 312.845 330.996 308.61C330.903 304.66 335.094 306.234 338.05 306.305L338.074 347.766C338.07 353.233 337.516 362.355 338.199 367.416C338.962 373.061 343.745 376.278 348.138 371.696C350.755 368.967 349.908 363.394 349.875 359.983L349.872 306.305L370.093 306.305C366.195 292.353 358.68 275.013 353.712 260.915C349.443 248.801 349.963 253.266 349.921 241.436L349.872 205.964C354.816 205.991 359.802 205.725 364.738 205.964L364.739 248.95C364.745 254.087 364.55 259.29 364.65 264.417C364.74 268.96 371.714 269.747 372.779 265.654C373.48 262.96 373.015 247.045 373.015 243.29L373.006 220.1C372.983 196.759 370.502 191.286 347.758 191.274L312.553 191.256C292.896 191.257 284.748 193.689 284.932 215.973L284.963 252.335C284.958 255.286 283.971 265.198 285.812 267.489C287.212 269.231 289.902 269.091 291.445 267.64C293.796 265.428 293.112 261.054 293.111 258.175L293.103 205.964L308.813 205.964L308.833 234.051C308.871 250.25 308.927 246.953 303.683 262.198L294.907 287.341C292.717 293.665 290.653 300.096 288.152 306.305L307.219 306.305L307.213 346.336C307.213 350.149 306.027 367.921 308.293 370.402C311.587 374.012 318.439 373.499 319.134 367.906C319.416 365.644 319.257 363.211 319.257 360.928L319.244 306.305C321.593 306.251 323.949 306.296 326.299 306.305L326.311 349.811C326.312 355.122 326.88 365.515 325.938 370.372C323.305 383.949 302.741 382.292 300.442 368.957C299.526 363.645 300.163 356.315 300.166 350.789L300.168 313.288C296.588 313.302 279.486 315.156 279.546 310.641C279.578 308.248 290.261 279.448 291.976 275.416Z" />
	<path fill="#E6B800" transform="scale(2 2)"
		d="M356.848 212.815L357.746 213.017L358.021 213.456C357.532 218.258 357.726 223.185 357.729 228.008L357.737 250.282C356.269 248.142 356.1 246.777 356.568 244.248C358.361 234.537 355.289 220.871 356.848 212.815Z" />
	<path fill="#E6B800" transform="scale(2 2)"
		d="M300.88 212.815C303.229 213.795 302.271 246.43 300.88 250.282L300.557 250.351L300.327 249.967C300.087 244.416 299.481 216.277 300.88 212.815Z" />
	<path fill="#020202" transform="scale(2 2)"
		d="M154.001 267.735C150.062 278.523 135.516 277.684 132.711 268.613C130.853 262.605 132.142 238.177 132.142 230.54L132.148 216.267C132.162 203.033 134.27 189.84 149.662 185.575C155.554 183.942 162.136 184.455 168.198 184.457L186.966 184.47C203.623 184.47 226.971 181.133 232.717 202.129C234.343 208.073 233.754 214.887 233.745 221.001L233.751 256.72C233.755 261.127 234.417 266.443 232.051 270.405C227.29 278.377 214.321 276.265 212.342 267.289L212.27 266.949L211.941 266.736C211.664 267.424 211.776 268.365 211.782 269.099L211.79 357.209C211.798 363.718 212.963 370.311 207.832 375.27C200.792 382.074 187.233 378.511 185.848 368.308C185.443 365.329 185.729 362.128 185.735 359.12L185.733 282.719L181.523 282.719L181.533 358.879C181.541 362.143 181.819 365.5 181.281 368.733C178.97 382.612 157.375 382.936 155.351 368.689C154.78 364.665 155.001 360.382 155.001 356.321L155.012 272.896C154.538 271.348 154.453 268.893 154.509 267.267L154.528 266.834L154.148 267.269C154.379 267.485 154.343 267.371 154.372 267.546L154.001 267.735Z" />
	<path fill="#E6B800" transform="scale(2 2)"
		d="M154.001 267.735C154.088 261.92 153.503 214.316 154.271 213.162C155.713 214.136 155.015 218.256 155.016 219.792L155.016 230.883C155.008 244.871 154.728 258.915 155.012 272.896C154.538 271.348 154.453 268.893 154.509 267.267L154.528 266.834L154.148 267.269C154.379 267.485 154.343 267.371 154.372 267.546L154.001 267.735Z" />
	<path fill="#E6B800" transform="scale(2 2)"
		d="M211.782 265.115C211.04 262.17 211.776 257.795 211.793 254.663C211.81 251.51 211.286 214.047 211.527 213.38L211.89 213.267C212.82 214.973 212.338 257.229 212.27 261.648C212.338 263.358 212.49 265.256 212.27 266.949L211.941 266.736C211.664 267.424 211.776 268.365 211.782 269.099C211.57 267.814 211.646 266.401 211.782 265.115Z" />
	<path fill="#FC0" transform="scale(2 2)"
		d="M157.411 191.275L193.549 191.264C215.913 191.263 226.84 189.334 226.773 217.721L226.776 253.479C226.779 256.282 227.687 265.098 225.89 267.263C224.555 268.871 221.208 268.946 219.827 267.381C217.603 264.861 218.763 247.399 218.767 243.61L218.761 205.964L204.819 205.964L204.818 350.043C204.82 354.445 206.359 366.848 203.261 370.125C199.73 373.86 193.624 372.483 192.875 367.076C192.497 364.341 192.725 361.377 192.73 358.61L192.755 290.875L192.755 275.416L174.291 275.416L174.316 357.069C174.334 361.588 175.786 372.409 168.746 372.458C159.041 372.524 162.162 356.622 162.162 349.908L162.158 205.964L147.226 205.964L147.227 246.763C147.225 250.336 147.979 265.061 146.674 267.117C144.687 270.246 139.689 269.422 139.307 265.623C138.973 262.305 139.208 258.778 139.208 255.431L139.22 217.5C139.233 203.539 140.829 192.706 157.411 191.275Z" />
</svg>