<?xml version="1.0" encoding="utf-8"?>
<svg xmlns="http://www.w3.org/2000/svg" width="400" height="400" viewBox="0 0 1000 1000">
	<path fill="#050505" transform="scale(2 2)"
		d="M129.551 162.312C134.683 161.951 136.432 169.229 138.19 172.905C141.689 180.222 145.16 187.742 148.243 195.245C152.466 196.491 156.933 196.489 161.306 196.79L176.06 197.831C179.1 198.046 191.874 198.455 186.309 205.252C180.759 212.03 165.782 223.442 158.805 229.326C160.499 236.473 167.09 258.447 166.717 264.133C165.307 266.302 163.941 267.059 161.334 267.446C153.278 264.463 140.557 256.855 132.843 252.638C131.825 252.031 130.643 251.621 129.551 251.161C122.351 255.118 105.693 265.312 98.2385 267.446C91.6839 263.798 95.3917 257.067 96.6566 251.189C98.2209 243.918 99.6316 236.461 101.723 229.326C98.1768 225.825 75.3143 206.332 75.341 202.534C75.3826 196.608 86.0117 197.541 89.978 197.128C97.4932 196.345 105.154 195.114 112.711 195.245C114.921 189.619 124.114 167.252 127.185 163.256L129.551 162.312Z" />
	<path fill="#FC0" transform="scale(2 2)"
		d="M130.167 177.127C132.335 181.221 140.82 203.258 143.912 204.256C147.517 205.419 166.742 206.43 171.684 206.545C166.414 211.393 150.837 221.716 148.896 227.922C150.987 236.745 154.049 245.41 155.989 254.248C152.062 252.775 148.519 250.769 144.9 248.681C140.143 246.386 134.965 242.841 130.167 241.088C122.212 243.691 112.975 250.456 105.152 254.248C107.091 245.434 109.151 236.682 111.317 227.922C109.279 222.177 95.0973 211.318 90.4352 206.081C96.7801 204.955 113.787 204.761 118.347 202.894C121.142 201.749 124.649 190.583 126.041 187.303C127.391 183.913 128.659 180.449 130.167 177.127Z" />
	<path fill="#050505" transform="scale(2 2)"
		d="M380.994 161.339C386.076 161.053 387.4 168.481 389.063 172.186C392.339 179.489 395.574 186.795 398.713 194.159C408.32 195.21 424.793 196.139 433.851 198.576C437.194 199.475 438.698 203.38 436.438 206.228C430.706 213.451 417.524 222.297 410.271 229.326C412.358 240.57 415.119 251.646 417.43 262.838C416.518 265.554 415.36 266.544 412.566 267.446C405.768 265.401 388.251 254.9 381.841 251.161C380.405 250.781 355.06 265.978 350.682 267.446C343.499 264.93 346.611 258.458 347.797 252.788C349.436 244.95 351.44 237.19 352.959 229.326C348.268 224.149 326.29 208.879 325.682 204.454C324.93 198.978 335.899 198.748 339.147 198.198C347.744 196.743 356.339 195.395 364.97 194.159C367.787 187.746 370.556 181.312 373.24 174.842C374.919 170.795 376.574 162.783 380.994 161.339Z" />
	<path fill="#FC0" transform="scale(2 2)"
		d="M381.841 178.116C384.905 184.813 388.972 195.967 392.505 201.874C398.384 203.787 416.086 205.138 423.218 206.081L422.954 206.355C418.333 211.112 412.732 215.346 407.722 219.716C398.974 227.347 400.227 226.352 402.639 236.897C403.945 242.605 405.266 248.437 405.982 254.248C402.642 252.336 399.274 250.491 395.878 248.681C391.503 246.635 387.576 243.29 383.094 241.594C379.107 240.086 361.554 251.914 356.848 254.106L356.539 254.248C358.463 246.139 361.585 234.368 362.551 226.286C359.308 220.977 345.496 211.69 340.122 206.545C345.794 206.388 351.521 205.125 357.131 204.308C376.967 201.417 370.246 203.761 378.807 185.053C379.749 182.697 380.724 180.396 381.841 178.116Z" />
	<path fill="#050505" transform="scale(2 2)"
		d="M254.708 94.5473C261.164 93.8838 262.034 101.205 264.114 105.842L274.744 129.487C276.739 133.896 278.601 139.019 281.337 143.001C289.867 144.428 329.225 146.568 333.358 148.962C334.619 149.692 334.959 151.428 335.311 152.727C333.823 157.877 327.85 161.382 324.118 164.887L306.482 181.747C303.141 184.951 299.622 188.039 296.489 191.446C298.84 202.392 300.946 213.412 303.191 224.384C304.891 232.695 310.838 243.931 301.679 247.714C299.225 246.628 296.91 244.918 294.598 243.547L282.471 236.46C273.715 231.259 264.596 226.409 256.044 220.905C251.81 220.851 218.636 245.123 208.897 247.714C206.548 246.669 205.465 245.648 204.582 243.123C208.628 226.445 211.836 209.556 215.895 192.868C207.337 184.958 199.117 176.673 190.665 168.652C186.067 164.288 171.189 155.267 178.796 149.463C184.027 148.518 189.401 148.203 194.678 147.537L231.458 143.001C236.42 132.361 241.152 121.511 245.869 110.756C247.965 105.979 250.057 97.1024 254.708 94.5473Z" />
	<defs>
		<linearGradient id="gradient_0" gradientUnits="userSpaceOnUse" x1="204.28035" y1="196.65178"
			x2="319.62009" y2="157.33569">
			<stop offset="0" stop-color="#FFB208" />
			<stop offset="1" stop-color="#FFE003" />
		</linearGradient>
	</defs>
	<path fill="url(#gradient_0)" transform="scale(2 2)"
		d="M256.044 110.939C261.718 119.537 269.78 145.244 274.15 149.758C277 152.704 313.866 155.314 320.907 155.823C315.595 160.312 289.033 184.913 286.779 188.9C287.961 200.186 293.235 222.718 296.489 233.887C285.568 228.913 264.166 213.062 256.044 211.156C251.701 211.299 220.448 230.945 215.895 233.887C218.557 221.025 224.179 202.623 225.385 190.119C223.298 185.671 196.626 162.254 191.114 157.114L219.138 153.355C236.464 151.144 235.82 154.852 243.012 138.873C246.582 130.941 251.846 117.966 256.044 110.939Z" />
	<path fill="#050505" transform="scale(2 2)"
		d="M388.983 262.838L391.548 264.133C395.018 267.167 412.503 307.033 414.955 313.039C430.47 314.409 449.369 316.515 464.556 318.904C468.432 319.514 469.379 320.477 470.455 324.332C468.555 328.822 463.24 332.147 459.711 335.292L440.604 352.594C437.034 355.886 433.238 359.081 430.086 362.779C432.761 373.864 434.796 385.138 437.075 396.311C437.712 399.434 444.706 420.585 434.003 416.396C429.909 414.794 425.306 411.693 421.386 409.499L390.403 391.768C385.008 388.391 353.455 413.756 343.151 416.884C334.065 414.831 340.383 401.846 341.93 394.706L348.613 362.779C337.512 350.339 321.092 340.051 310.513 326.873C303.508 318.148 322.995 318.055 326.952 317.496C339.526 315.719 352.283 313.649 364.97 313.039C365.478 307.631 368.53 302.292 370.634 297.365L379.673 276.617C382.088 271.181 382.981 263.847 388.983 262.838Z" />
	<path fill="#FC0" transform="scale(2 2)"
		d="M384.38 288.262C385.807 284.898 387.108 281.198 388.983 278.056L389.203 278.425C393.921 286.406 399.493 300.289 403.398 309.127C410.102 324.298 406.432 321.092 422.562 323.133C433.472 324.514 444.382 325.81 455.334 326.827C450.177 331.361 422.519 355.737 420.389 359.955C421.486 373.391 427.478 388.457 429.006 402.988C425.025 400.948 421.158 398.516 417.43 396.044C410.661 393.567 403.955 389.862 397.752 386.222C393.789 383.897 391.095 379.714 385.999 381.552C376.767 384.882 359.056 397.661 349.663 402.988C351.232 393.936 353.236 385.001 355.113 376.011C358.738 358.652 361.193 361.69 348.99 350.403L332.984 335.641C329.9 332.775 326.676 330 323.899 326.827C326.473 326.435 329.106 326.276 331.694 325.947L357.179 322.745C361.401 322.198 368.648 322.873 371.185 318.751C375.439 311.841 380.401 296.603 384.38 288.262Z" />
	<path fill="#050505" transform="scale(2 2)"
		d="M121.503 262.838C122.783 262.672 124.17 262.458 125.346 263.117C127.404 264.27 146.89 308.174 148.243 313.039C160.768 314.679 173.382 315.91 185.926 317.441C188.693 317.779 209.527 318.015 202.898 325.838C193.572 336.844 175.093 351.087 164.027 361.598C166.83 377.239 171.648 395.351 173.523 410.756C174.066 415.217 169.978 417.944 166.032 416.428C154.066 411.828 135.53 398.298 122.89 391.768C120.852 391.376 117.743 394.263 115.953 395.277L90.9957 409.513C87.7634 411.354 78.7257 418.006 74.9549 416.672C67.528 414.044 74.7952 394.513 76.0854 388.181L79.4137 371.743C80.1353 368.349 80.6919 364.804 82.0509 361.598C73.517 354.674 65.4925 346.99 57.3205 339.638C54.6315 337.218 34.3483 322.966 45.7518 319.668C57.3789 316.304 84.6929 315.108 98.2385 313.039L98.6373 311.522C99.4985 308.214 101.103 304.975 102.449 301.837L115.991 271.431C117.251 268.605 118.135 263.693 121.503 262.838Z" />
	<path fill="#FC0" transform="scale(2 2)"
		d="M117.292 290.868C119.095 286.584 120.84 282.23 122.89 278.056C127.617 287.991 131.913 298.1 136.488 308.102C143.75 323.979 140.371 320.985 158.631 323.159C168.656 324.353 178.759 325.393 188.749 326.827C184.035 330.958 156.471 354.808 154.596 358.973C154.627 362.771 155.739 366.81 156.447 370.537L160.617 392.471C161.377 396.312 162.481 400.286 162.899 404.17C158.212 401.492 153.535 398.804 148.896 396.044C142.494 392.257 129.554 383.951 122.89 381.605C116.119 383.416 89.2889 399.764 82.0509 404.17C84.1766 393.608 86.5653 383.11 88.6133 372.53C91.8799 355.655 93.2679 359.147 79.8052 347.338C72.8246 341.215 63.4528 333.437 57.2132 326.827C63.6313 326.578 96.611 323.348 101.509 321.434C105.395 319.916 115.23 295.811 117.292 290.868Z" />
</svg>